# xmcd CD database file
#
# Track frame offsets:
#	150
#	27076
#	57300
#	79207
#	112362
#	133035
#	145808
#	157825
#	184074
#	207788
#	227215
#	252314
#
# Disc length: 3568 seconds
#
# Revision: 0
# Processed by: cddbd v1.5.2PL0 Copyright (c) Steve Scherf et al.
# Submitted via: CDex 1.70beta2
#
DISCID=a70dee0c
DTITLE=Berns, Köbberling, Weiss - Resolve
DYEAR=2008
DGENRE=Jazz
TTITLE0=Resolve
TTITLE1=Big Sir - for Richard
TTITLE2=In Particular
TTITLE3=Tim's Shrimps
TTITLE4=Getting There - for Miles (part1)
TTITLE5=Getting There - for Miles (part2)
TTITLE6=Getting There - for Miles (part3)
TTITLE7=Folksong
TTITLE8=Peach Blossom
TTITLE9=Zahlen, bitte
TTITLE10=Wenn ich in Deine Augen seh
TTITLE11=Die Rose, die Lillie, die Taube - for Luca
EXTD=YEAR: 2008
EXTT0=
EXTT1=
EXTT2=
EXTT3=
EXTT4=
EXTT5=
EXTT6=
EXTT7=
EXTT8=
EXTT9=
EXTT10=
EXTT11=
PLAYORDER=
